<svg preserveAspectRatio="xMidYMid meet" data-bbox="29.999 30 140.001 140" viewBox="29.999 30 140.001 140" height="200" width="200" xmlns="http://www.w3.org/2000/svg" data-type="color" role="presentation" aria-hidden="true">
    <g>
        <path d="M103.67 56.73c3.31-2.218 5.49-5.987 5.488-10.268s-2.186-8.048-5.498-10.262c-3.31 2.218-5.49 5.987-5.488 10.268.002 4.281 2.186 8.048 5.498 10.262z" fill="#D1DDE4" data-color="1"></path>
        <path d="M165.481 156.003c-.002-4.528-3.712-8.232-8.244-8.229l-101.547.053c-4.532.002-8.238 3.709-8.235 8.238l.001 1.583c.002 4.528 3.712 8.232 8.244 8.229l101.547-.053c4.532-.002 8.238-3.709 8.236-8.238l-.002-1.583z" fill="#D1DDE4" data-color="1"></path>
        <path d="M106.425 73.325c-27.381 3.517-48.579 29.426-48.565 56.871l97.189-.05c-.014-27.445-21.238-53.332-48.624-56.821z" fill="#D1DDE4" data-color="1"></path>
        <path d="M42.359 170c-6.811 0-12.354-5.535-12.358-12.342l-.002-1.584c-.003-6.81 5.54-12.35 12.353-12.356l115.28-.062h.008c3.29 0 6.389 1.286 8.727 3.621a12.259 12.259 0 0 1 3.632 8.727l.001 1.579c.004 6.81-5.537 12.353-12.353 12.358L42.367 170h-.008zm115.28-18.11h-.003l-115.28.062a4.124 4.124 0 0 0-4.119 4.119l.001 1.581a4.122 4.122 0 0 0 4.119 4.114h.003l115.28-.059a4.125 4.125 0 0 0 4.119-4.119l-.001-1.581a4.085 4.085 0 0 0-1.215-2.905 4.09 4.09 0 0 0-2.904-1.212z" fill="#858A8D" data-color="2"></path>
        <path d="M142.143 87.249c-10.286-10.624-23.683-16.82-38.068-17.822l-.004-7.031a16.363 16.363 0 0 0 7.531-4.289 16.358 16.358 0 0 0 4.82-11.648 16.346 16.346 0 0 0-4.832-11.64A16.378 16.378 0 0 0 99.941 30h-.007c-9.087.003-16.477 7.395-16.473 16.475.005 7.657 5.272 14.087 12.369 15.919l.004 6.993c-30.935 2.207-55.446 28.862-55.429 61.316a4.116 4.116 0 0 0 4.12 4.114h.003l93.044-.049.012.001h.003l.012-.001 17.851-.01a4.116 4.116 0 0 0 4.117-4.119c-.008-16.387-6.196-31.796-17.424-43.39zM91.702 46.47c-.001-4.54 3.693-8.234 8.236-8.236h.004c2.199 0 4.267.855 5.823 2.409a8.177 8.177 0 0 1 2.417 5.821 8.168 8.168 0 0 1-2.41 5.821 8.18 8.18 0 0 1-5.824 2.415h-.004c-4.542.001-8.24-3.69-8.242-8.23zm49.814 80.062c-1.776-19.866-16.206-36.171-35.614-39.543-2.244-.415-4.375 1.107-4.765 3.35a4.116 4.116 0 0 0 3.354 4.76c15.456 2.686 26.988 15.595 28.722 31.437l-84.417.044c2.018-27.429 24.189-49.112 51.164-49.125h.025c13.677 0 26.546 5.51 36.236 15.518 8.79 9.078 14.017 20.865 14.953 33.553l-9.658.006z" fill="#858A8D" data-color="2"></path>
    </g>
</svg>