<?xml version="1.0" encoding="UTF-8"?>
<svg xmlns="http://www.w3.org/2000/svg" version="1.1" viewBox="0 0 200 200">
  <defs>
    <style>
      .cls-1 {
        fill: #345944;
      }
      .cls-2 {
        fill: #e98866;
      }
    </style>
  </defs>
  <!-- Generator: Adobe Illustrator 28.6.0, SVG Export Plug-In . SVG Version: 1.2.0 Build 709)  -->
  <g>
    <g id="katman_1">
      <g>
        <path class="cls-2" d="M114.3,76.7h-25.2c-.9,0-1.6.7-1.6,1.5v53.4c0,.9.7,1.5,1.6,1.5h25.2c.9,0,1.6-.7,1.6-1.5v-53.4c0-.9-.7-1.5-1.6-1.5h0Z"/>
        <path class="cls-1" d="M200,123.1c0-.2,0-.4,0-.6,0-.2,0-.4,0-.6,0-.3,0-.6-.2-.8,0-.1,0-.2-.1-.4,0-.2-.1-.4-.2-.6,0-.1-.2-.2-.3-.4,0,0,0,0,0,0l-29.4-42.6c-.9-1.4-2.5-2.2-4.2-2.2H34.4c-1.7,0-3.2.8-4.2,2.2L.9,119.7s0,0,0,0c0,.1-.2.2-.3.4-.1.2-.1.4-.2.6,0,.1,0,.2-.1.4,0,.3-.1.5-.2.8,0,.2,0,.4,0,.6,0,.2,0,.4,0,.6,0,.3,0,.6.2.8,0,.1,0,.2.1.4,0,.2.1.4.2.6,0,.1.2.2.3.4,0,0,0,0,0,0l29.4,42.6c.9,1.4,2.5,2.2,4.2,2.2h131.2c1.7,0,3.2-.8,4.2-2.2l29.4-42.6s0,0,0,0c0-.1.2-.2.3-.4.1-.2.1-.4.2-.6,0-.1,0-.2.1-.4,0-.3.1-.5.2-.8h0ZM37.1,85h125.9l22.4,32.5H14.6l22.4-32.5ZM162.9,160.1H37.1l-22.4-32.5h170.8l-22.4,32.5Z"/>
        <path class="cls-1" d="M101.7,29.9c-2.5,0-4.6,2-4.6,4.6v18.7c0,2.5,2.1,4.6,4.6,4.6s4.6-2,4.6-4.6v-18.7c0-2.5-2.1-4.6-4.6-4.6Z"/>
        <path class="cls-1" d="M133.3,36.2c-2.2-1.2-5-.3-6.2,1.9l-7.3,13.9c-1.2,2.2-.3,5,1.9,6.1,0,0,0,0,0,0,.7.3,1.4.5,2.1.5,1.7,0,3.3-.9,4.1-2.4l7.3-13.9c1.2-2.2.3-5-1.9-6.1,0,0,0,0,0,0Z"/>
        <path class="cls-1" d="M76.4,38.1c-1.2-2.2-4-3.1-6.2-1.9-2.2,1.2-3.1,3.9-1.9,6.1,0,0,0,0,0,0l7.3,13.9c.8,1.5,2.4,2.4,4.1,2.4.7,0,1.5-.2,2.1-.5,2.2-1.2,3.1-3.9,1.9-6.1,0,0,0,0,0,0,0,0-7.3-13.9-7.3-13.9Z"/>
      </g>
    </g>
  </g>
</svg>