<svg preserveAspectRatio="xMidYMid meet" data-bbox="72 44.001 56.002 111.999" viewBox="72 44.001 56.002 111.999" height="200" width="200" xmlns="http://www.w3.org/2000/svg" data-type="color" role="presentation" aria-hidden="true">
    <g>
        <path d="M85.274 44.035a3.056 3.056 0 0 0-3.374 2.113C80.888 49.38 72 77.971 72 86.411c0 7.054 5.624 13.196 8.832 16.129-1.228 23.627-2.415 46.77-2.446 48.51-.065 3.629 2.213 4.913 4.587 4.949 2.374.036 4.751-1.437 4.729-4.617-.011-1.535.025-24.983.065-48.835a3.06 3.06 0 0 0 .091-.656V47.078a3.07 3.07 0 0 0-2.584-3.043zM84.111 150.56a1.062 1.062 0 0 1-1.073 1.052 1.063 1.063 0 0 1-1.042-1.084l.062-4.154a1.062 1.062 0 0 1 1.073-1.052c.584.009 1.05.493 1.042 1.084l-.062 4.154z" fill="#0E4828" data-color="1"></path>
        <path d="M124.329 46.426c-1.732.175-2.985 1.777-2.985 3.535v22.742c0 2.872-1.46 5.765-3.669 6.96a.808.808 0 0 1-1.188-.715V49.961c0-1.758-1.253-3.36-2.985-3.535-1.992-.201-3.671 1.373-3.671 3.343v29.18a.808.808 0 0 1-1.188.715c-2.209-1.195-3.669-4.088-3.669-6.96V49.962c0-1.758-1.253-3.36-2.985-3.535-1.992-.201-3.671 1.373-3.671 3.343v22.932a14.993 14.993 0 0 0 9.568 13.996c1.154.444 1.946 1.522 1.946 2.769 0 0-1.32 57.108-1.332 60.737-.011 3.63 2.286 4.879 4.66 4.879s4.729-1.509 4.66-4.688l-1.332-60.929c0-1.247.791-2.325 1.946-2.769a14.991 14.991 0 0 0 9.568-13.996V49.77c-.002-1.971-1.681-3.545-3.673-3.344zm-10.114 103.203c0 .59-.473 1.068-1.058 1.068a1.062 1.062 0 0 1-1.058-1.068v-4.154c0-.59.473-1.068 1.058-1.068.585 0 1.058.478 1.058 1.068v4.154z" fill="#0E4828" data-color="1"></path>
    </g>
</svg>