<svg preserveAspectRatio="xMidYMid meet" data-bbox="29.5 37 141 126" viewBox="29.5 37 141 126" height="200" width="200" xmlns="http://www.w3.org/2000/svg" data-type="color" role="presentation" aria-hidden="true">
    <g>
        <path d="M101.469 163c-16.911 0-45.531-2.776-45.531-13.176v-42.498h5.875v42.498c.901 2.491 15.33 7.316 39.656 7.316s38.755-4.825 39.668-7.41l-.011-42.345H147v42.44C147 160.224 118.379 163 101.469 163z" fill="#4FBFB7" data-color="1"></path>
        <path d="M82.048 65.67l-5.221-2.69c4.211-8.125 11.962-13.172 20.235-13.172v5.86c-6.158.001-11.77 3.739-15.014 10.002z" fill="#4FBFB7" data-color="1"></path>
        <path d="M46.798 77.99l-5.221-2.69c4.211-8.125 11.965-13.173 20.235-13.173v5.86c-6.156.001-11.77 3.741-15.014 10.003z" fill="#4FBFB7" data-color="1"></path>
        <path d="M114.688 116.116h-8.812v-5.86h8.812c5.646 0 10.915-2.252 14.84-6.34l1.153-1.202 1.627.372c2.057.469 4.16.708 6.248.708 14.375 0 26.07-10.762 26.07-23.991S152.93 55.81 138.555 55.81c-4.541 0-9.033 1.112-12.992 3.214l-2.768 1.469-1.288-2.852c-4.062-8.98-13.514-14.781-24.077-14.781-9.966 0-19.194 5.37-23.509 13.681l-1.159 2.232-2.387-.803a27.943 27.943 0 0 0-8.93-1.479c-14.375 0-26.07 10.764-26.07 23.993s11.695 23.991 26.07 23.991c4.197 0 8.23-.91 11.985-2.704l2.536 5.285a33.408 33.408 0 0 1-14.521 3.279c-17.614 0-31.945-13.392-31.945-29.852 0-16.461 14.332-29.853 31.945-29.853 2.849 0 5.689.366 8.474 1.092C75.648 42.583 85.969 37 97.43 37c11.807 0 22.507 6.025 28.061 15.575a33.814 33.814 0 0 1 13.064-2.625c17.614 0 31.945 13.392 31.945 29.853 0 16.46-14.332 29.852-31.945 29.852-1.988 0-3.987-.179-5.961-.531-4.897 4.521-11.194 6.992-17.906 6.992z" fill="#4FBFB7" data-color="1"></path>
    </g>
</svg>