<?xml version="1.0" encoding="iso-8859-1"?>
<!-- Uploaded to: SVG Repo, www.svgrepo.com, Generator: SVG Repo Mixer Tools -->
<svg xmlns="http://www.w3.org/2000/svg" xmlns:xlink="http://www.w3.org/1999/xlink" version="1.1" id="Capa_1"  viewBox="0 0 470 470" xml:space="preserve" width="512" height="512">
<g>
	<path style="fill:#FDCE6E;" d="M402.5,162.5l-175,190h30c96.65,0,175-78.35,175-175v-15H402.5z"/>
	<path style="fill:#FEFDCA;" d="M402.5,177.5v-15h-365v15c0,96.65,78.35,175,175,175h15C324.15,352.5,402.5,274.15,402.5,177.5z"/>
	<path style="fill:#CCECFF;" d="M455.91,45.91c8.787-8.787,8.787-23.033,0-31.82c-8.787-8.787-23.033-8.787-31.82,0L280.709,162.717   l54.121,0L455.91,45.91z"/>
	<path style="fill:#FFFFFF;" d="M447.5,147.5h-425c-8.284,0-15,6.716-15,15s6.716,15,15,15h425c8.284,0,15-6.716,15-15   S455.784,147.5,447.5,147.5z"/>
	<path style="fill:#FDCE6E;" d="M407.5,397.5l-51.667,65h30c16.5,0,34.269-12.807,39.487-28.46l12.18-36.54H407.5z"/>
	<path style="fill:#FDFA7B;" d="M32.5,397.5l12.18,36.54c5.218,15.653,22.987,28.46,39.487,28.46h271.667   c16.5,0,34.269-12.807,39.487-28.46l12.18-36.54H32.5z"/>
	<path style="fill:#FEFDCA;" d="M447.5,382.5h-425c-8.284,0-15,6.716-15,15s6.716,15,15,15h425c8.284,0,15-6.716,15-15   S455.784,382.5,447.5,382.5z"/>
	<path style="fill:#FFCFB2;" d="M210,90.001c0-11.837,3.051-17.432,6.584-23.909C220.529,58.86,225,50.664,225,35.001   c0-15.631-4.454-23.825-8.394-31.046C215.341,1.601,212.857,0,209.997,0c-4.142,0-7.5,3.358-7.5,7.5   c0,1.307,0.336,2.535,0.924,3.605C206.951,17.578,210,23.171,210,35.001c0,11.837-3.051,17.432-6.584,23.909   C199.471,66.142,195,74.338,195,90.001c0,15.662,4.471,23.858,8.415,31.09c1.361,2.496,3.935,3.91,6.591,3.91   c1.213,0,2.444-0.295,3.584-0.917c3.637-1.983,4.977-6.539,2.993-10.175C213.051,107.431,210,101.838,210,90.001z"/>
	<path style="fill:#FFCFB2;" d="M260,90.001c0-11.837,3.051-17.432,6.584-23.909C270.529,58.86,275,50.664,275,35.001   c0-15.631-4.454-23.825-8.394-31.046C265.341,1.601,262.857,0,259.997,0c-4.142,0-7.5,3.358-7.5,7.5   c0,1.307,0.336,2.535,0.924,3.605C256.951,17.578,260,23.171,260,35.001c0,11.837-3.051,17.432-6.584,23.909   C249.471,66.142,245,74.338,245,90.001c0,15.662,4.471,23.858,8.415,31.09c1.361,2.496,3.935,3.91,6.591,3.91   c1.213,0,2.444-0.295,3.584-0.917c3.637-1.983,4.977-6.539,2.993-10.175C263.051,107.431,260,101.838,260,90.001z"/>
	<path d="M447.5,140h-78.321l91.937-88.692c0.033-0.031,0.064-0.063,0.096-0.095C466.879,45.547,470,38.013,470,30   s-3.121-15.547-8.787-21.213C455.547,3.121,448.013,0,440,0s-15.547,3.121-21.213,8.787c-0.032,0.032-0.063,0.063-0.095,0.096   L292.203,140H22.5C10.093,140,0,150.093,0,162.5S10.093,185,22.5,185h7.666c3.949,97.166,84.216,175,182.334,175h45   c98.118,0,178.385-77.834,182.334-175h7.666c12.407,0,22.5-10.093,22.5-22.5S459.907,140,447.5,140z M429.437,19.35   C432.265,16.544,436.014,15,440,15c4.006,0,7.773,1.56,10.606,4.394C453.439,22.227,455,25.994,455,30   c0,3.986-1.544,7.735-4.35,10.563L347.575,140h-34.53L429.437,19.35z M447.5,170h-350c-4.142,0-7.5,3.358-7.5,7.5   s3.358,7.5,7.5,7.5h327.324c-3.938,88.892-77.478,160-167.324,160h-45c-89.846,0-163.386-71.108-167.324-160H67.5   c4.142,0,7.5-3.358,7.5-7.5s-3.358-7.5-7.5-7.5h-45c-4.136,0-7.5-3.364-7.5-7.5s3.364-7.5,7.5-7.5h425c4.136,0,7.5,3.364,7.5,7.5   S451.636,170,447.5,170z"/>
	<path d="M447.5,375h-425C10.093,375,0,385.093,0,397.5S10.093,420,22.5,420h9.594l5.47,16.411   C43.843,455.246,64.313,470,84.167,470h301.667c19.854,0,40.324-14.754,46.602-33.589l5.47-16.411h9.594   c12.407,0,22.5-10.093,22.5-22.5S459.907,375,447.5,375z M447.5,405h-14.843c-0.024,0-335.157,0-335.157,0   c-4.142,0-7.5,3.358-7.5,7.5s3.358,7.5,7.5,7.5h324.594l-3.889,11.668C413.989,444.315,399.165,455,385.833,455H84.167   c-13.332,0-28.156-10.685-32.372-23.332L47.906,420H67.5c4.142,0,7.5-3.358,7.5-7.5s-3.358-7.5-7.5-7.5H37.38   c-0.042,0-14.88,0-14.88,0c-4.136,0-7.5-3.364-7.5-7.5s3.364-7.5,7.5-7.5h425c4.136,0,7.5,3.364,7.5,7.5S451.636,405,447.5,405z"/>
</g>

</svg>