<?xml version="1.0" encoding="UTF-8"?>
<svg xmlns="http://www.w3.org/2000/svg" version="1.1" viewBox="0 0 200 200">
  <defs>
    <style>
      .cls-1 {
        fill: #334563;
      }
      .cls-2 {
        fill: #f97425;
      }
    </style>
  </defs>
  <!-- Generator: Adobe Illustrator 28.6.0, SVG Export Plug-In . SVG Version: 1.2.0 Build 709)  -->
  <g>
    <g id="katman_1">
      <path class="cls-1" d="M170.1,200H29.9c-2.8,0-5.1-2.3-5.1-5.1V25.6c0-2.8,2.3-5.1,5.1-5.1h140.2c2.8,0,5.1,2.3,5.1,5.1v169.2c0,2.8-2.3,5.1-5.1,5.1h0ZM35,189.7h129.9V30.8H35v159h0Z"/>
      <path class="cls-1" d="M113.7,23.9c-2.8,0-5.1-2.3-5.1-5.1,0-4.7-3.8-8.5-8.5-8.5s-8.5,3.8-8.5,8.5c0,2.8-2.4,5.1-5.2,5-2.8,0-5-2.3-5-5C81.2,8.4,89.6,0,100,0s18.8,8.4,18.8,18.8c0,2.8-2.3,5.1-5.1,5.1h0Z"/>
      <path class="cls-1" d="M133.4,54.7h-66.9c-2.8,0-5.1-2.3-5.1-5.1v-20.5c0-2.8,2.4-5.1,5.2-5,2.8,0,5,2.3,5,5v15.4h56.6v-15.4c0-2.8,2.4-5.1,5.2-5,2.8,0,5,2.3,5,5v20.5c0,2.8-2.3,5.1-5.1,5.1Z"/>
      <path class="cls-2" d="M66.7,116.2c-2.4,0-4.3-1.9-4.3-4.3h0v-23.9c0-2.4,1.9-4.3,4.3-4.3s4.3,1.9,4.3,4.3v23.9c0,2.4-1.9,4.3-4.3,4.3h0Z"/>
      <path class="cls-2" d="M78.6,104.3h-23.9c-2.4,0-4.3-1.9-4.3-4.3s1.9-4.3,4.3-4.3h23.9c2.4,0,4.3,1.9,4.3,4.3s-1.9,4.3-4.3,4.3Z"/>
      <path class="cls-2" d="M145.3,83.8h-44.4c-2.4,0-4.3-1.9-4.3-4.3s1.9-4.3,4.3-4.3h44.4c2.4,0,4.3,1.9,4.3,4.3s-1.9,4.3-4.3,4.3Z"/>
      <path class="cls-2" d="M145.3,104.3h-44.4c-2.4,0-4.3-1.9-4.3-4.3s1.9-4.3,4.3-4.3h44.4c2.4,0,4.3,1.9,4.3,4.3s-1.9,4.3-4.3,4.3Z"/>
      <path class="cls-2" d="M145.3,124.8h-44.4c-2.4,0-4.3-1.9-4.3-4.3s1.9-4.3,4.3-4.3h44.4c2.4,0,4.3,1.9,4.3,4.3s-1.9,4.3-4.3,4.3Z"/>
      <path class="cls-1" d="M145.3,146.2H56.4c-2.4,0-4.3-1.9-4.3-4.3s1.9-4.3,4.3-4.3h88.9c2.4,0,4.3,1.9,4.3,4.3s-1.9,4.3-4.3,4.3h0Z"/>
      <path class="cls-1" d="M145.3,166.7H56.4c-2.4,0-4.3-1.9-4.3-4.3s1.9-4.3,4.3-4.3h88.9c2.4,0,4.3,1.9,4.3,4.3s-1.9,4.3-4.3,4.3h0Z"/>
    </g>
  </g>
</svg>